<svg width="400" height="300" viewBox="0 0 400 300" fill="none" xmlns="http://www.w3.org/2000/svg">
<!-- Fundo do céu -->
<rect width="400" height="300" fill="#87CEEB"/>

<!-- Sol -->
<circle cx="350" cy="50" r="25" fill="#FFD700"/>

<!-- Mar -->
<rect x="0" y="200" width="400" height="100" fill="#1E90FF"/>

<!-- Ondas -->
<path d="M0 210 Q50 205 100 210 T200 210 T300 210 T400 210" stroke="#4682B4" stroke-width="2" fill="none"/>
<path d="M0 220 Q50 215 100 220 T200 220 T300 220 T400 220" stroke="#4682B4" stroke-width="2" fill="none"/>

<!-- Praia de Boa Viagem -->
<rect x="0" y="190" width="400" height="15" fill="#F4A460"/>

<!-- Coqueiros da praia -->
<rect x="50" y="150" width="6" height="45" fill="#8B4513"/>
<ellipse cx="53" cy="145" rx="12" ry="8" fill="#228B22"/>
<ellipse cx="53" cy="140" rx="10" ry="6" fill="#32CD32"/>

<rect x="120" y="155" width="6" height="40" fill="#8B4513"/>
<ellipse cx="123" cy="150" rx="12" ry="8" fill="#228B22"/>
<ellipse cx="123" cy="145" rx="10" ry="6" fill="#32CD32"/>

<rect x="300" y="145" width="6" height="50" fill="#8B4513"/>
<ellipse cx="303" cy="140" rx="12" ry="8" fill="#228B22"/>
<ellipse cx="303" cy="135" rx="10" ry="6" fill="#32CD32"/>

<!-- Edifícios modernos de Boa Viagem -->
<rect x="150" y="80" width="25" height="110" fill="#4169E1"/>
<rect x="180" y="70" width="30" height="120" fill="#FF6347"/>
<rect x="215" y="85" width="20" height="105" fill="#32CD32"/>
<rect x="240" y="75" width="28" height="115" fill="#FFD700"/>
<rect x="270" y="90" width="22" height="100" fill="#FF69B4"/>

<!-- Janelas dos prédios -->
<rect x="155" y="90" width="4" height="6" fill="#F0F8FF"/>
<rect x="161" y="90" width="4" height="6" fill="#F0F8FF"/>
<rect x="167" y="90" width="4" height="6" fill="#F0F8FF"/>
<rect x="155" y="105" width="4" height="6" fill="#F0F8FF"/>
<rect x="161" y="105" width="4" height="6" fill="#F0F8FF"/>
<rect x="167" y="105" width="4" height="6" fill="#F0F8FF"/>

<rect x="185" y="80" width="4" height="6" fill="#F0F8FF"/>
<rect x="191" y="80" width="4" height="6" fill="#F0F8FF"/>
<rect x="197" y="80" width="4" height="6" fill="#F0F8FF"/>
<rect x="203" y="80" width="4" height="6" fill="#F0F8FF"/>
<rect x="185" y="95" width="4" height="6" fill="#F0F8FF"/>
<rect x="191" y="95" width="4" height="6" fill="#F0F8FF"/>
<rect x="197" y="95" width="4" height="6" fill="#F0F8FF"/>
<rect x="203" y="95" width="4" height="6" fill="#F0F8FF"/>

<!-- Marco Zero (centro histórico) -->
<circle cx="80" cy="120" r="15" fill="#DEB887"/>
<rect x="75" y="110" width="10" height="25" fill="#8B4513"/>

<!-- Ponte sobre o rio -->
<rect x="20" y="130" width="100" height="6" fill="#A9A9A9"/>
<rect x="30" y="110" width="4" height="25" fill="#696969"/>
<rect x="50" y="105" width="4" height="30" fill="#696969"/>
<rect x="70" y="105" width="4" height="30" fill="#696969"/>
<rect x="90" y="110" width="4" height="25" fill="#696969"/>

<!-- Cabos da ponte -->
<line x1="32" y1="110" x2="52" y2="130" stroke="#2F4F4F" stroke-width="1"/>
<line x1="52" y1="105" x2="32" y2="130" stroke="#2F4F4F" stroke-width="1"/>
<line x1="52" y1="105" x2="72" y2="130" stroke="#2F4F4F" stroke-width="1"/>
<line x1="72" y1="105" x2="52" y2="130" stroke="#2F4F4F" stroke-width="1"/>
<line x1="72" y1="105" x2="92" y2="130" stroke="#2F4F4F" stroke-width="1"/>
<line x1="92" y1="110" x2="72" y2="130" stroke="#2F4F4F" stroke-width="1"/>

<!-- Casas coloridas do centro histórico -->
<rect x="10" y="140" width="20" height="30" fill="#FF69B4"/>
<rect x="35" y="145" width="18" height="25" fill="#32CD32"/>
<rect x="58" y="142" width="22" height="28" fill="#FFD700"/>

<!-- Telhados -->
<polygon points="10,140 20,130 30,140" fill="#8B4513"/>
<polygon points="35,145 44,135 53,145" fill="#A0522D"/>
<polygon points="58,142 69,132 80,142" fill="#8B4513"/>

<!-- Jangadas no mar -->
<polygon points="350,230 360,235 350,240" fill="#DEB887"/>
<rect x="355" y="220" width="2" height="18" fill="#8B4513"/>
<polygon points="354,220 358,215 358,225" fill="white"/>

<polygon points="320,235 330,240 320,245" fill="#DEB887"/>
<rect x="325" y="225" width="2" height="18" fill="#8B4513"/>
<polygon points="324,225 328,220 328,230" fill="white"/>

<!-- Texto -->
<text x="200" y="270" text-anchor="middle" fill="white" font-family="Arial" font-size="20" font-weight="bold">Recife</text>
<text x="200" y="285" text-anchor="middle" fill="white" font-family="Arial" font-size="14">Veneza Brasileira</text>
</svg>